<?xml version="1.0" encoding="utf-8"?>
<!-- Generator: Adobe Illustrator 19.0.0, SVG Export Plug-In . SVG Version: 6.00 Build 0)  -->
<svg version="1.1" id="Capa_1" xmlns:sketch="http://www.bohemiancoding.com/sketch/ns"
	 xmlns="http://www.w3.org/2000/svg" xmlns:xlink="http://www.w3.org/1999/xlink" x="0px" y="0px" viewBox="-501 823 197 276"
	 style="enable-background:new -501 823 197 276;" xml:space="preserve">
<style type="text/css">
	.st0{fill:#333333;stroke:#000000;stroke-width:5.81;}
	.st1{fill:#93939F;stroke:#000000;stroke-width:2.7051;}
	.st2{fill:#7F7F8D;}
	.st3{fill:#C1C1C8;}
	.st4{fill:#FF0000;stroke:#000000;stroke-width:5.4845;}
	.st5{opacity:0.3374;fill:#A5A5A5;enable-background:new    ;}
	.st6{stroke:#000000;stroke-width:3.4763;}
	.st7{fill:#FFFFFF;}
	.st8{fill:url(#Shape_18_);stroke:#000000;stroke-width:1.3433;}
	.st9{fill:url(#Shape_19_);stroke:#000000;stroke-width:1.3433;}
	.st10{fill:url(#Shape_20_);stroke:#000000;stroke-width:2.6866;}
	.st11{fill:url(#Shape_21_);stroke:#000000;stroke-width:3.0452;}
	.st12{fill:url(#Shape_22_);stroke:#000000;stroke-width:3.0452;}
	.st13{fill:none;stroke:#000000;stroke-width:5.3732;}
	.st14{fill:#FFFFFF;stroke:#000000;stroke-width:5.4845;}
	.st15{fill:#A5A5A5;}
	.st16{fill:url(#SVGID_1_);stroke:#000000;stroke-width:2.6866;}
</style>
<title>mole</title>
<desc>Created with Sketch.</desc>
<g id="Page-1" sketch:type="MSPage">
	<g id="mole" transform="translate(3.323440, 2.016670)" sketch:type="MSLayerGroup">
		<path id="Shape" sketch:type="MSShapeGroup" class="st0" d="M-406.2,823.9c-0.2,0-0.6,0-0.8,0v0c-14.6,0.2-50.2,3.3-63.3,35.1
			c-6.5-8.7,0,0-21-19.9c0,0-26.4,25.8,9.6,44.2c12.5,116-13,160.6,61,159c4.2-0.1,8.8,0,13.6,0.1h0.1l2.2,0v-0.1
			c4.8-0.1,9.4-0.2,13.6-0.1c74,1.6,48.5-43,61-159c36-18.4,9.6-44.2,9.6-44.2c-21,19.9-14.5,11.3-21,19.9
			C-355,826.1-392.6,823.9-406.2,823.9L-406.2,823.9z"/>
		<path id="Shape_1_" sketch:type="MSShapeGroup" class="st1" d="M-334.6,1017.2c0,42.5-31.2,77-69.7,77s-69.7-34.5-69.7-77
			s31.2-77,69.7-77S-334.6,974.6-334.6,1017.2L-334.6,1017.2z"/>
		<path id="Shape_2_" sketch:type="MSShapeGroup" class="st2" d="M-405.3,941c37.4,1.3,67.4,35.3,67.4,76.9
			c0,39.3-26.7,71.8-61.2,76.4c24-6.7,42.2-38.1,42.2-75.9c0-41-21.4-74.5-48.5-77V941L-405.3,941z"/>
		<path id="Shape_3_" sketch:type="MSShapeGroup" class="st3" d="M-405.5,939.9c-37.4,1.3-67.4,35.3-67.4,76.9
			c0,39.3,26.7,71.8,61.2,76.4c-24-6.7-42.2-38.1-42.2-75.9c0-41,21.4-74.5,48.5-77V939.9L-405.5,939.9z"/>
		<path id="Shape_4_" sketch:type="MSShapeGroup" class="st4" d="M-457.8,863c-7.2,5.4-6.6,18.7-5,25.7
			c3.3,14.3,15.7,24.1,28.5,26.8c13.7,2.9,24.7-3.1,27.7-4.9c2,1.3,14.6,9.6,30.3,5.4c20.2-5.4,25.7-26.3,25.9-27.3
			c2.4-9.7,2-25.6-6.4-30.7c-9.9-6-30.6,3.9-49,27C-426.9,863.8-448.5,856-457.8,863z"/>
		<path id="Shape_5_" sketch:type="MSShapeGroup" class="st5" d="M-366.1,855.9c0.4,2.3,0.6,4.7,0.6,7.1c0,20.6-14.5,37.4-32.3,37.4
			c-10.5,0-19.8-5.8-25.8-14.7c-5.9,9-15.2,14.7-25.7,14.7c-0.7,0-2.2,0.2-4.1-0.3c-5.4-1.5-8.1-7.1-9-9.2c2.1,4.4,6.5,12.1,15,18.5
			c3.2,2.4,8.2,6.1,15.5,7.5c12.1,2.4,22.1-2.9,25.5-5c4.2,2,14,6,26,4c1.2-0.2,28.7-5.2,32.1-26.6
			C-346.3,876.8-353.4,863.4-366.1,855.9z"/>
		<g id="Group" transform="translate(73.930691, 58.411444)" sketch:type="MSShapeGroup">
			<path id="Shape_6_" class="st6" d="M-522.8,833.4c0,3.2-1.7,5.7-3.8,5.7s-3.8-2.6-3.8-5.7c0-3.2,1.7-5.7,3.8-5.7
				C-524.5,827.7-522.8,830.3-522.8,833.4L-522.8,833.4z"/>
			<path id="Shape_7_" class="st7" d="M-524.5,835.5c0,1.3-1.1,2.3-2.4,2.3c-1.3,0-2.3-1.1-2.3-2.3c0-1.3,1.1-2.4,2.3-2.4
				C-525.6,833.2-524.5,834.2-524.5,835.5L-524.5,835.5z"/>
		</g>
		<g id="Group_1_" transform="translate(97.170814, 58.411444)" sketch:type="MSShapeGroup">
			<path id="Shape_8_" class="st6" d="M-458.5,820.9c0,3.4-2.3,6.1-5.2,6.1c-2.9,0-5.2-2.7-5.2-6.1c0-3.4,2.3-6.1,5.2-6.1
				C-460.9,814.8-458.5,817.5-458.5,820.9L-458.5,820.9z"/>
			<path id="Shape_9_" class="st7" d="M-462.3,821.1c0,1.3-1.1,2.3-2.3,2.3s-2.3-1.1-2.3-2.3s1.1-2.4,2.3-2.4
				S-462.3,819.8-462.3,821.1L-462.3,821.1z"/>
		</g>
		
			<linearGradient id="Shape_18_" gradientUnits="userSpaceOnUse" x1="-983.3902" y1="1892.8368" x2="-982.3317" y2="1892.8368" gradientTransform="matrix(22.8117 0 0 -30.8108 21934.5254 59183.8164)">
			<stop  offset="0" style="stop-color:#F1AAC2"/>
			<stop  offset="1" style="stop-color:#E5638F"/>
		</linearGradient>
		<path id="Shape_10_" sketch:type="MSShapeGroup" class="st8" d="M-493.7,848.6c0,0-13.6,15.8,10.1,30.8c3.8-3.7,4.4-4.3,8.8-7.9
			v-2.9c-5.4-3-2.9-6.8-11.8-17.8L-493.7,848.6L-493.7,848.6z"/>
		
			<linearGradient id="Shape_19_" gradientUnits="userSpaceOnUse" x1="-982.332" y1="1892.8368" x2="-983.3904" y2="1892.8368" gradientTransform="matrix(22.8117 0 0 -30.8108 22096.5313 59184.5273)">
			<stop  offset="0" style="stop-color:#F1AAC2"/>
			<stop  offset="1" style="stop-color:#E5638F"/>
		</linearGradient>
		<path id="Shape_11_" sketch:type="MSShapeGroup" class="st9" d="M-316.7,849.3c0,0,13.6,15.8-10.1,30.8c-3.8-3.7-4.4-4.3-8.8-7.9
			v-2.9c5.4-3,2.9-6.8,11.8-17.8L-316.7,849.3L-316.7,849.3z"/>
		<path id="Shape_12_" sketch:type="MSShapeGroup" class="st2" d="M-414.3,943.3c37.4,1.3,67.4,35.3,67.4,76.9
			c0,39.3-26.7,71.8-61.2,76.4c24-6.7,42.2-38.1,42.2-75.9c0-41-21.4-74.5-48.5-77V943.3z"/>
		
			<linearGradient id="Shape_20_" gradientUnits="userSpaceOnUse" x1="-999.5241" y1="1906.3763" x2="-998.8959" y2="1905.6608" gradientTransform="matrix(89.7499 0 0 -61.4079 89277.3594 117995.2969)">
			<stop  offset="0" style="stop-color:#FFCEAE"/>
			<stop  offset="1" style="stop-color:#FFB280"/>
		</linearGradient>
		<path id="Shape_13_" sketch:type="MSShapeGroup" class="st10" d="M-405.9,914.1c-11.5,0-21.5,5.7-26.1,13.9
			c-10.5,3.3-17.3,8.4-17.3,14.1c0,1.6,0.5,3.1,1.5,4.6c-0.7,1.7-1.1,3.4-1.1,5.3c0,13,20,23.6,44.7,23.6s44.7-10.6,44.7-23.6
			c0-2.1-0.5-4.1-1.5-6c0.7-1.2,1-2.5,1-3.8c0-6.3-8.1-11.8-20.4-14.9C-385.1,919.4-394.8,914.1-405.9,914.1z"/>
		<path id="Shape_14_" sketch:type="MSShapeGroup" d="M-389.6,922c0,8.7-7.1,15.8-15.8,15.8s-15.8-7.1-15.8-15.8s7.1-15.8,15.8-15.8
			S-389.6,913.2-389.6,922L-389.6,922z"/>
		
			<linearGradient id="Shape_21_" gradientUnits="userSpaceOnUse" x1="-977.3111" y1="1889.8065" x2="-976.1394" y2="1889.8065" gradientTransform="matrix(17.8781 0 0 -27.2428 17047.7324 52440.6367)">
			<stop  offset="0" style="stop-color:#8A8A8A"/>
			<stop  offset="0.2857" style="stop-color:#F1F1F1"/>
			<stop  offset="1" style="stop-color:#FFFFFF"/>
		</linearGradient>
		<path id="Shape_15_" sketch:type="MSShapeGroup" class="st11" d="M-423.2,943.4h17.9v27.2h-17.9V943.4z"/>
		
			<linearGradient id="Shape_22_" gradientUnits="userSpaceOnUse" x1="-977.1559" y1="1889.7847" x2="-975.9843" y2="1889.7847" gradientTransform="matrix(17.8781 0 0 -27.2428 17065.8203 52440.1016)">
			<stop  offset="0" style="stop-color:#8A8A8A"/>
			<stop  offset="0.2857" style="stop-color:#F1F1F1"/>
			<stop  offset="1" style="stop-color:#FFFFFF"/>
		</linearGradient>
		<path id="Shape_16_" sketch:type="MSShapeGroup" class="st12" d="M-402.3,943.5h17.9v27.2h-17.9V943.5z"/>
		<path id="Shape_17_" sketch:type="MSShapeGroup" class="st13" d="M-441.3,955.5c3.6-3.1,16.3-13.3,35.5-14
			c20.4-0.8,34.4,9.7,38,12.5"/>
	</g>
</g>
<path class="st14" d="M-417,850.5"/>
<path class="st15" d="M-419.5,862.5"/>
<path class="st2" d="M-309.5,969.5"/>
<linearGradient id="SVGID_1_" gradientUnits="userSpaceOnUse" x1="-410.5" y1="960" x2="-410.5" y2="960">
	<stop  offset="0" style="stop-color:#FFCEAE"/>
	<stop  offset="1" style="stop-color:#FFB280"/>
</linearGradient>
<path class="st16" d="M-410.5,960"/>
</svg>
